<?xml version="1.0" encoding="UTF-8"?>
<svg id="Layer_2" data-name="Layer 2" xmlns="http://www.w3.org/2000/svg" viewBox="0 0 348.26 172.17">
  <defs>
    <style>
      .cls-1 {
        fill: #00a0df;
      }

      .cls-1, .cls-2, .cls-3 {
        stroke-width: 0px;
      }

      .cls-2 {
        fill: #fbce40;
      }

      .cls-3 {
        fill: #0082ca;
      }
    </style>
  </defs>
  <g id="Layer_1-2" data-name="Layer 1">
    <g>
      <rect class="cls-3" y="89.81" width="322.7" height="82.37"/>
      <g>
        <path class="cls-1" d="m34.09,0h-16.23v43.71c0,4.6-.87,7.88-2.6,9.84-1.73,1.95-4.58,2.93-8.53,2.93-.43,0-.85-.03-1.27-.05l-5.45,13.31c2.41.44,5.06.66,7.97.66,5.13,0,9.38-.68,12.75-2.04,3.36-1.36,6.04-3.21,8.01-5.54,1.98-2.33,3.36-5.08,4.16-8.21.8-3.14,1.2-6.49,1.2-10.04V0Z"/>
        <path class="cls-1" d="m298.87,12.41c-1.8,0-3.59.09-5.36.26-1.77.17-3.46.39-5.05.63-.84.13-1.64.27-2.42.41h0c-.47.1-.94.19-1.42.29-1.18.25-2.2.54-3.04.89v12.87c1.29-.32,4.23-1.7,11.77-1.7.57,0,1.16,0,1.78.02.97.03,2.13.09,3.48.26,1.35.18,2.38.37,3.07.58l.32.09c1.45.4,2.59,1.01,3.41,1.84,1.6,1.6,2.4,2.67,2.4,5.32v1.3c-3.35-.22-7.41-.47-9.16-.47-2.98,0-5.86.3-8.64.89-2.78.59-5.24,1.55-7.39,2.88-2.15,1.32-3.87,3.1-5.15,5.33-1.28,2.23-1.93,4.95-1.93,8.16s.56,6.17,1.66,8.47c1.11,2.31,2.71,4.17,4.79,5.6,2.08,1.43,4.56,2.46,7.44,3.09,2.88.63,6.09.94,9.63.94,5.62,0,10.4-.33,14.36-.99,3.95-.66,7.04-1.24,9.26-1.72v-32.75c0-3.42-.38-6.52-1.15-9.31-.76-2.79-2.07-5.16-3.9-7.12-1.84-1.95-4.28-3.45-7.33-4.5-3.05-1.04-6.87-1.57-11.45-1.57m1.25,45.93c-2.85,0-5.08-.47-6.71-1.41-1.63-.94-2.45-2.63-2.45-5.08,0-1.25.27-2.3.83-3.14.56-.84,1.32-1.5,2.29-1.99.57-.29,3.09-.75,6.42-.75,2.19,0,4.73.2,7.31.78v11.17c-.83.14-1.95.25-3.33.31-1.39.07-2.84.11-4.37.11"/>
        <path class="cls-1" d="m131.73,13.89h-43.5v12.97h23.31c-1.87,2.23-3.92,4.73-6.14,7.48-2.22,2.75-4.46,5.6-6.71,8.53-2.25,2.93-4.41,5.85-6.45,8.74-2.05,2.9-3.8,5.6-5.25,8.11v9.21h45.26v-12.97h-26.48c2.02-2.93,4.26-5.96,6.73-9.1,2.47-3.14,4.92-6.14,7.35-9,2.43-2.86,4.71-5.47,6.83-7.85,2.12-2.37,3.8-4.25,5.06-5.65v-10.46Z"/>
        <path class="cls-1" d="m159.26,12.43c-3.33,0-6.57.63-9.73,1.88-3.16,1.25-5.95,3.11-8.38,5.55-2.43,2.44-4.39,5.49-5.88,9.16-1.49,3.66-2.24,7.93-2.24,12.82,0,4.05.57,7.82,1.72,11.3,1.15,3.49,2.91,6.5,5.31,9.05,2.4,2.55,5.41,4.55,9.05,6.02,3.64,1.46,7.93,2.2,12.85,2.2,1.94,0,3.88-.11,5.83-.31,1.94-.21,3.76-.47,5.46-.78,1.7-.31,3.25-.68,4.63-1.1,1.38-.42,4.2-1.34,6.24-2.58v-13.2c-5.42,2.14-8.09,2.93-11.71,3.8-2.71.65-5.53.78-8.38.78-4.44,0-7.98-.94-10.61-2.83-2.64-1.88-4.13-4.43-4.48-7.64h35.17c.07-.84.14-1.8.2-2.88.07-1.08.1-2.08.1-2.98,0-9.28-2.25-16.3-6.76-21.08-4.51-4.78-10.65-7.17-18.42-7.17m-10.3,23.44c.21-1.32.53-2.63.99-3.92.45-1.29,1.09-2.42,1.92-3.4.83-.97,1.87-1.76,3.12-2.35,1.25-.59,2.74-.89,4.48-.89s3.31.31,4.53.94c1.21.63,2.22,1.43,3.01,2.41.8.98,1.39,2.1,1.77,3.35.38,1.26.61,2.55.67,3.87h-20.5Z"/>
        <path class="cls-1" d="m214.01,12.43c-3.33,0-6.58.63-9.73,1.88-3.16,1.25-5.95,3.11-8.37,5.55-2.43,2.44-4.39,5.49-5.88,9.16-1.49,3.66-2.24,7.93-2.24,12.82,0,4.05.57,7.82,1.72,11.3,1.14,3.49,2.91,6.5,5.31,9.05,2.39,2.55,5.41,4.55,9.05,6.02,3.64,1.46,7.93,2.2,12.85,2.2,1.94,0,3.88-.11,5.83-.31,1.94-.21,3.76-.47,5.46-.78,1.7-.31,3.25-.68,4.63-1.1,1.38-.42,4.2-1.34,6.24-2.58v-13.2c-5.42,2.14-8.09,2.93-11.71,3.8-2.71.65-5.54.78-8.38.78-4.44,0-7.98-.94-10.61-2.83-2.63-1.88-4.13-4.43-4.47-7.64h35.17c.07-.84.14-1.8.2-2.88.07-1.08.1-2.08.1-2.98,0-9.28-2.25-16.3-6.76-21.08-4.51-4.78-10.65-7.17-18.41-7.17m-10.3,23.44c.21-1.32.53-2.63.99-3.92.45-1.29,1.09-2.42,1.92-3.4.83-.97,1.87-1.76,3.12-2.35,1.25-.59,2.74-.89,4.48-.89s3.31.31,4.53.94c1.21.63,2.22,1.43,3.02,2.41.8.98,1.39,2.1,1.77,3.35.38,1.26.61,2.55.67,3.87h-20.5Z"/>
        <path class="cls-1" d="m265.08,12.74c-4.65,0-8.86.44-12.64,1.31-3.78.87-7.06,1.8-9.84,2.77v52.1h15.5V26.87c.69-.21,1.72-.4,3.07-.57,1.35-.17,2.51-.25,3.48-.26.14,0,.29,0,.43,0,6.12,0,11.74,1.34,13.09,1.68v-12.87c-.83-.35-1.84-.64-3.02-.89-1.18-.25-2.36-.45-3.54-.63-1.18-.17-2.36-.31-3.54-.42-1.18-.11-2.18-.16-3.02-.16"/>
        <path class="cls-1" d="m59.83,12.41c-1.8,0-3.59.09-5.36.26-1.77.17-3.46.39-5.05.63-.84.13-1.64.27-2.42.41h0c-.47.1-.94.19-1.42.29-1.18.25-2.2.54-3.04.89v12.87c1.29-.32,4.23-1.7,11.77-1.7.57,0,1.16,0,1.78.02.97.03,2.13.09,3.48.26,1.35.18,2.38.37,3.07.58l.32.09c1.45.4,2.59,1.01,3.41,1.84,1.6,1.6,2.39,2.67,2.39,5.32v1.3c-3.35-.22-7.4-.47-9.16-.47-2.98,0-5.86.3-8.64.89-2.78.59-5.24,1.55-7.39,2.88-2.15,1.32-3.87,3.1-5.15,5.33-1.28,2.23-1.93,4.95-1.93,8.16s.56,6.17,1.66,8.47c1.11,2.31,2.7,4.17,4.79,5.6,2.08,1.43,4.56,2.46,7.44,3.09,2.88.63,6.09.94,9.63.94,5.61,0,10.4-.33,14.36-.99,3.95-.66,7.04-1.24,9.26-1.72v-32.75c0-3.42-.38-6.52-1.15-9.31-.77-2.79-2.06-5.16-3.9-7.12-1.84-1.95-4.28-3.45-7.34-4.5-3.05-1.04-6.87-1.57-11.45-1.57m1.25,45.93c-2.85,0-5.08-.47-6.71-1.41-1.63-.94-2.45-2.63-2.45-5.08,0-1.25.27-2.3.83-3.14.56-.84,1.32-1.5,2.29-1.99.57-.29,3.09-.75,6.42-.75,2.19,0,4.73.2,7.31.78v11.17c-.83.14-1.94.25-3.33.31-1.39.07-2.85.11-4.37.11"/>
        <polygon class="cls-1" points="326.76 58.03 337.51 68.84 348.26 58.03 337.51 47.22 326.76 58.03"/>
      </g>
      <g>
        <path class="cls-2" d="m21.15,140.46c1.09.45,2.27.83,3.56,1.16,1.28.32,2.61.58,3.97.77,1.37.19,2.7.29,3.98.29.77,0,1.58-.02,2.43-.06.85-.04,1.63-.14,2.35-.29.71-.15,1.34-.37,1.89-.64.54-.28.89-.65,1.05-1.12.26-.77-.02-1.39-.84-1.86-.83-.47-2.33-.96-4.51-1.48l-4.47-1.03c-4.16-.98-7.07-2.89-8.72-5.71-1.65-2.83-1.73-6.44-.23-10.85.71-2.1,1.8-4.1,3.26-6,1.46-1.9,3.31-3.56,5.54-4.98,2.23-1.41,4.84-2.54,7.82-3.37,2.98-.83,6.37-1.25,10.18-1.25,1.67,0,3.4.12,5.18.35,1.78.24,3.5.56,5.16.96,1.66.41,3.19.89,4.58,1.44,1.39.56,2.53,1.18,3.41,1.86l-10.86,14.38c-.71-.56-1.59-1.07-2.62-1.54-1.04-.47-2.14-.87-3.29-1.19-1.15-.32-2.31-.57-3.47-.74-1.16-.17-2.26-.26-3.28-.26-.6,0-1.24.02-1.92.07-.68.04-1.33.13-1.95.26-.62.13-1.17.32-1.64.58-.47.26-.79.62-.95,1.09-.22.64-.05,1.16.5,1.54.56.39,1.79.79,3.7,1.22l4.25.9c2.04.43,3.91,1.04,5.61,1.83,1.7.79,3.08,1.82,4.15,3.08,1.07,1.26,1.73,2.81,1.98,4.65.25,1.84-.05,4.02-.91,6.55-.93,2.74-2.34,5.16-4.23,7.26-1.89,2.1-4.1,3.86-6.62,5.3-2.52,1.44-5.25,2.51-8.2,3.24s-5.94,1.09-8.98,1.09c-2.14,0-4.24-.12-6.3-.35-2.06-.24-3.99-.56-5.77-.96-1.79-.41-3.39-.89-4.81-1.44s-2.56-1.18-3.44-1.86l10.86-14.38c.62.56,1.48,1.06,2.57,1.51Z"/>
        <path class="cls-2" d="m108.86,157.06h-16.25l.28-9.5h-16.95l-6.18,9.5h-16.24l34.52-52.07h21.7l-.87,52.07Zm-24.73-22.09h9.12l.42-14.64-9.53,14.64Z"/>
        <path class="cls-2" d="m123.41,104.98h16.89l-3.62,36.73,21.34-36.73h16.89l-31.95,52.07h-22.99l3.44-52.07Z"/>
        <path class="cls-2" d="m180.04,104.98h36.79l-5,14.71h-21.06l-1.27,3.72h19.13l-5,14.7h-19.13l-1.44,4.24h21.06l-5,14.7h-36.79l17.7-52.07Z"/>
        <path class="cls-2" d="m232.21,139.66h-3.08l-5.91,17.4h-15.73l17.7-52.07h22.92c3.55,0,6.36.51,8.43,1.54,2.07,1.03,3.57,2.37,4.5,4.05.93,1.67,1.36,3.55,1.29,5.65-.07,2.1-.46,4.19-1.18,6.29-1.09,3.21-2.73,6.12-4.92,8.73-2.2,2.61-5,4.67-8.42,6.16l5.27,19.65h-16.57l-4.3-17.4Zm3.73-20.03l-2.27,6.68h3.92c.9,0,1.75-.02,2.56-.06.81-.04,1.54-.17,2.22-.39.67-.21,1.25-.55,1.75-1,.5-.45.88-1.08,1.16-1.89.28-.81.32-1.44.13-1.9-.19-.45-.55-.78-1.08-.99-.53-.21-1.18-.34-1.96-.39-.78-.04-1.61-.07-2.51-.07h-3.92Z"/>
        <path class="cls-2" d="m269.69,140.46c1.09.45,2.27.83,3.56,1.16,1.28.32,2.61.58,3.97.77,1.37.19,2.7.29,3.98.29.77,0,1.58-.02,2.43-.06.85-.04,1.63-.14,2.35-.29.71-.15,1.34-.37,1.89-.64.55-.28.9-.65,1.06-1.12.26-.77-.02-1.39-.84-1.86-.82-.47-2.33-.96-4.51-1.48l-4.47-1.03c-4.16-.98-7.07-2.89-8.72-5.71-1.65-2.83-1.73-6.44-.23-10.85.71-2.1,1.8-4.1,3.26-6,1.46-1.9,3.31-3.56,5.54-4.98,2.24-1.41,4.84-2.54,7.82-3.37,2.98-.83,6.38-1.25,10.19-1.25,1.67,0,3.4.12,5.18.35,1.78.24,3.5.56,5.16.96,1.66.41,3.18.89,4.58,1.44,1.39.56,2.53,1.18,3.41,1.86l-10.86,14.38c-.71-.56-1.58-1.07-2.62-1.54-1.04-.47-2.14-.87-3.29-1.19-1.16-.32-2.31-.57-3.47-.74-1.16-.17-2.26-.26-3.28-.26-.6,0-1.24.02-1.92.07-.68.04-1.33.13-1.95.26-.62.13-1.17.32-1.64.58-.47.26-.79.62-.95,1.09-.22.64-.05,1.16.5,1.54.55.39,1.79.79,3.69,1.22l4.25.9c2.04.43,3.91,1.04,5.61,1.83,1.7.79,3.08,1.82,4.15,3.08,1.07,1.26,1.73,2.81,1.98,4.65.25,1.84-.05,4.02-.91,6.55-.93,2.74-2.34,5.16-4.23,7.26-1.89,2.1-4.1,3.86-6.62,5.3-2.52,1.44-5.25,2.51-8.2,3.24s-5.94,1.09-8.98,1.09c-2.14,0-4.24-.12-6.3-.35-2.06-.24-3.99-.56-5.77-.96-1.79-.41-3.39-.89-4.81-1.44s-2.56-1.18-3.44-1.86l10.86-14.38c.62.56,1.48,1.06,2.57,1.51Z"/>
      </g>
    </g>
  </g>
</svg>