<?xml version="1.0" encoding="utf-8"?>
<!-- Generator: Adobe Illustrator 16.0.0, SVG Export Plug-In . SVG Version: 6.00 Build 0)  -->
<!DOCTYPE svg PUBLIC "-//W3C//DTD SVG 1.1//EN" "http://www.w3.org/Graphics/SVG/1.1/DTD/svg11.dtd">
<svg version="1.1" id="Layer_1" xmlns="http://www.w3.org/2000/svg" xmlns:xlink="http://www.w3.org/1999/xlink" x="0px" y="0px"
	 width="357px" height="120.386px" viewBox="0 0 357 120.386" enable-background="new 0 0 357 120.386" xml:space="preserve">
<g>
	<defs>
		<rect id="SVGID_1_" width="357" height="120.386"/>
	</defs>
	<clipPath id="SVGID_2_">
		<use xlink:href="#SVGID_1_"  overflow="visible"/>
	</clipPath>
	<path clip-path="url(#SVGID_2_)" fill="#00A1DF" d="M106.539,42.815h-8.342v22.338c0,2.353-0.445,4.029-1.336,5.027
		c-0.891,0.998-2.354,1.497-4.384,1.497c-0.223,0-0.437-0.018-0.655-0.028l-2.8,6.803c1.236,0.224,2.602,0.337,4.095,0.337
		c2.639,0,4.821-0.349,6.551-1.044c1.729-0.694,3.102-1.639,4.117-2.834c1.017-1.192,1.728-2.593,2.139-4.197
		c0.41-1.604,0.615-3.315,0.615-5.131V42.815z"/>
	<path clip-path="url(#SVGID_2_)" fill="#40B4E5" d="M242.603,49.157c-0.929,0-1.845,0.045-2.753,0.133
		c-0.91,0.089-1.775,0.196-2.594,0.321c-0.432,0.065-0.845,0.136-1.241,0.21v0.007c-0.243,0.043-0.485,0.09-0.729,0.14
		c-0.604,0.126-1.133,0.278-1.561,0.454v6.577c0.663-0.164,2.175-0.866,6.048-0.866c0.292,0,0.596,0.003,0.914,0.012
		c0.499,0.013,1.096,0.044,1.79,0.133c0.695,0.089,1.223,0.188,1.579,0.295l0.161,0.045c0.746,0.205,1.329,0.518,1.752,0.941
		c0.821,0.82,1.232,1.364,1.232,2.719v0.665c-1.722-0.112-3.806-0.24-4.706-0.24c-1.533,0-3.013,0.152-4.438,0.454
		c-1.427,0.302-2.692,0.795-3.796,1.471c-1.104,0.678-1.987,1.586-2.646,2.728c-0.66,1.141-0.99,2.53-0.99,4.17
		c0,1.711,0.285,3.155,0.855,4.33c0.57,1.178,1.392,2.131,2.461,2.861c1.067,0.73,2.343,1.258,3.822,1.578
		c1.478,0.321,3.127,0.48,4.946,0.48c2.886,0,5.347-0.169,7.379-0.508c2.03-0.338,3.617-0.633,4.759-0.88V60.651
		c0-1.745-0.196-3.332-0.589-4.757c-0.392-1.426-1.062-2.638-2.007-3.636c-0.943-0.998-2.2-1.765-3.767-2.3
		C246.915,49.424,244.955,49.157,242.603,49.157 M243.244,72.625c-1.463,0-2.613-0.24-3.448-0.722
		c-0.838-0.482-1.257-1.345-1.257-2.593c0-0.642,0.142-1.177,0.428-1.604c0.285-0.427,0.678-0.767,1.177-1.016
		c0.295-0.146,1.585-0.383,3.3-0.383c1.125,0,2.431,0.102,3.759,0.396v5.707c-0.429,0.072-1,0.126-1.713,0.16
		C244.776,72.609,244.028,72.625,243.244,72.625"/>
	<path clip-path="url(#SVGID_2_)" fill="#40B4E5" d="M201.244,29.371c-0.942-0.061-1.45-0.143-1.943-0.143
		c-0.838,0-1.636,0.031-2.416,0.196c-0.779,0.165-1.472,0.434-2.076,0.805c-0.604,0.37-1.087,0.867-1.447,1.491
		s-0.541,1.384-0.541,2.281c0,0.936,0.156,1.725,0.468,2.368c0.312,0.645,0.761,1.166,1.346,1.565
		c0.584,0.4,1.281,0.688,2.091,0.864c0.809,0.175,1.581,0.264,2.576,0.264c1.579,0,1.932-0.094,3.042-0.279
		c1.111-0.186,1.979-0.346,2.604-0.482v-8.437L201.244,29.371z M199.095,35.697c-0.8,0-1.429-0.131-1.886-0.395
		c-0.458-0.263-0.688-0.736-0.688-1.418c0-0.351,0.077-0.644,0.234-0.878c0.155-0.233,0.37-0.419,0.644-0.555
		c0.161-0.08,0.866-0.21,1.805-0.21c0.615,0,1.329,0.056,2.056,0.217v3.122c-0.234,0.04-0.547,0.069-0.937,0.088
		C199.933,35.688,199.524,35.697,199.095,35.697"/>
	<path clip-path="url(#SVGID_2_)" fill="#004A97" d="M156.713,49.915h-22.35v6.631h11.976c-0.962,1.139-2.013,2.415-3.153,3.822
		c-1.143,1.408-2.291,2.862-3.45,4.357c-1.159,1.499-2.264,2.986-3.315,4.465c-1.052,1.479-1.951,2.861-2.699,4.144v4.706h23.259
		v-6.631h-13.61c1.036-1.497,2.187-3.048,3.457-4.652c1.267-1.604,2.526-3.135,3.778-4.598c1.248-1.461,2.419-2.797,3.508-4.009
		c1.09-1.212,1.955-2.174,2.599-2.887V49.915z"/>
	<path clip-path="url(#SVGID_2_)" fill="#001689" d="M170.859,49.167c-1.709,0-3.375,0.319-4.998,0.961
		c-1.624,0.641-3.057,1.587-4.305,2.834c-1.247,1.248-2.253,2.807-3.02,4.679s-1.15,4.055-1.15,6.55
		c0,2.068,0.293,3.994,0.882,5.775c0.589,1.782,1.497,3.324,2.727,4.625c1.231,1.302,2.78,2.325,4.651,3.075
		c1.872,0.748,4.074,1.122,6.605,1.122c0.996,0,1.996-0.054,2.994-0.16c0.996-0.107,1.932-0.24,2.806-0.401
		c0.874-0.161,1.668-0.349,2.381-0.561c0.713-0.215,2.16-0.687,3.208-1.318V69.6c-2.782,1.092-4.157,1.497-6.015,1.943
		c-1.396,0.333-2.844,0.4-4.305,0.4c-2.281,0-4.099-0.479-5.453-1.443c-1.357-0.962-2.122-2.265-2.3-3.902h18.073
		c0.035-0.429,0.071-0.919,0.106-1.471c0.036-0.554,0.053-1.062,0.053-1.523c0-4.742-1.158-8.332-3.476-10.775
		C178.006,50.387,174.851,49.167,170.859,49.167 M165.567,61.143c0.107-0.677,0.275-1.345,0.508-2.005
		c0.231-0.659,0.561-1.238,0.989-1.738c0.427-0.498,0.962-0.9,1.604-1.202c0.642-0.302,1.407-0.454,2.3-0.454
		c0.926,0,1.701,0.158,2.326,0.48c0.622,0.321,1.14,0.732,1.549,1.229c0.411,0.501,0.713,1.071,0.91,1.711
		c0.195,0.643,0.311,1.302,0.347,1.979H165.567z"/>
	<path clip-path="url(#SVGID_2_)" fill="#0D84C7" d="M198.991,49.167c-1.711,0-3.379,0.319-5,0.961
		c-1.621,0.641-3.057,1.587-4.303,2.834c-1.249,1.248-2.255,2.807-3.021,4.679c-0.768,1.872-1.15,4.055-1.15,6.55
		c0,2.068,0.293,3.994,0.882,5.775c0.589,1.782,1.497,3.324,2.728,4.625c1.229,1.302,2.779,2.325,4.65,3.075
		c1.872,0.748,4.074,1.122,6.605,1.122c0.996,0,1.996-0.054,2.994-0.16c0.998-0.107,1.934-0.24,2.806-0.401
		c0.874-0.161,1.668-0.349,2.381-0.561c0.712-0.215,2.16-0.687,3.208-1.318V69.6c-2.783,1.092-4.159,1.497-6.015,1.943
		c-1.396,0.333-2.844,0.4-4.305,0.4c-2.283,0-4.1-0.479-5.455-1.443c-1.354-0.962-2.12-2.265-2.299-3.902h18.073
		c0.035-0.429,0.071-0.919,0.106-1.471c0.034-0.554,0.053-1.062,0.053-1.523c0-4.742-1.158-8.332-3.476-10.775
		C206.137,50.387,202.982,49.167,198.991,49.167 M193.697,61.143c0.107-0.677,0.275-1.345,0.509-2.005
		c0.23-0.659,0.561-1.238,0.988-1.738c0.429-0.498,0.962-0.9,1.604-1.202c0.642-0.302,1.407-0.454,2.3-0.454
		c0.926,0,1.701,0.158,2.326,0.48c0.622,0.321,1.14,0.732,1.551,1.229c0.409,0.501,0.711,1.071,0.908,1.711
		c0.195,0.643,0.311,1.302,0.347,1.979H193.697z"/>
	<path clip-path="url(#SVGID_2_)" fill="#139BD7" d="M225.239,49.327c-2.389,0-4.554,0.223-6.496,0.668
		c-1.944,0.446-3.628,0.919-5.055,1.418v26.626h7.968V56.545c0.355-0.107,0.882-0.204,1.577-0.294
		c0.694-0.088,1.292-0.129,1.791-0.133c0.074-0.002,0.148-0.002,0.224-0.002c3.146,0,6.03,0.682,6.729,0.857v-6.577
		c-0.429-0.178-0.944-0.328-1.551-0.454c-0.608-0.126-1.212-0.232-1.818-0.321c-0.605-0.089-1.212-0.161-1.817-0.215
		C226.184,49.353,225.667,49.327,225.239,49.327"/>
	<path clip-path="url(#SVGID_2_)" fill="#0D84C7" d="M119.766,49.157c-0.928,0-1.844,0.045-2.753,0.133
		c-0.91,0.089-1.775,0.196-2.593,0.321c-0.432,0.065-0.845,0.136-1.242,0.21v0.007c-0.243,0.043-0.485,0.09-0.728,0.14
		c-0.606,0.126-1.133,0.278-1.561,0.454v6.577c0.663-0.164,2.175-0.866,6.048-0.866c0.292,0,0.596,0.003,0.914,0.012
		c0.499,0.013,1.096,0.044,1.79,0.133c0.696,0.089,1.223,0.188,1.579,0.295l0.162,0.045c0.744,0.205,1.329,0.518,1.752,0.941
		c0.821,0.82,1.23,1.364,1.23,2.719v0.665c-1.72-0.112-3.804-0.24-4.705-0.24c-1.532,0-3.012,0.152-4.438,0.454
		c-1.426,0.302-2.692,0.795-3.797,1.471c-1.103,0.678-1.987,1.586-2.645,2.728c-0.66,1.141-0.99,2.53-0.99,4.17
		c0,1.711,0.285,3.155,0.855,4.33c0.571,1.178,1.39,2.131,2.461,2.861c1.068,0.73,2.343,1.258,3.822,1.578
		c1.478,0.321,3.127,0.48,4.947,0.48c2.886,0,5.346-0.169,7.379-0.508c2.03-0.338,3.617-0.633,4.758-0.88V60.651
		c0-1.745-0.196-3.332-0.588-4.757c-0.394-1.426-1.061-2.638-2.005-3.636c-0.946-0.998-2.202-1.765-3.769-2.3
		C124.079,49.424,122.118,49.157,119.766,49.157 M120.407,72.625c-1.463,0-2.613-0.24-3.448-0.722
		c-0.838-0.482-1.257-1.345-1.257-2.593c0-0.642,0.141-1.177,0.428-1.604c0.285-0.427,0.677-0.767,1.176-1.016
		c0.293-0.146,1.585-0.383,3.3-0.383c1.125,0,2.431,0.102,3.757,0.396v5.707c-0.427,0.072-0.998,0.126-1.71,0.16
		C121.939,72.609,121.191,72.625,120.407,72.625"/>
	
		<rect x="258.549" y="68.564" transform="matrix(-0.707 -0.7072 0.7072 -0.707 396.7737 309.31)" clip-path="url(#SVGID_2_)" fill="#0D84C7" width="7.812" height="7.812"/>
	<path clip-path="url(#SVGID_2_)" fill="#004A97" d="M235.178,41.272c-0.972,0-1.774,0.801-1.774,1.774
		c0,0.973,0.803,1.775,1.774,1.775s1.772-0.802,1.772-1.775C236.95,42.073,236.149,41.272,235.178,41.272"/>
	<path clip-path="url(#SVGID_2_)" fill="#40B4E5" d="M202.522,27.508c0.973,0,1.773-0.801,1.773-1.773
		c0-0.974-0.801-1.776-1.773-1.776c-0.972,0-1.773,0.802-1.773,1.776C200.749,26.707,201.551,27.508,202.522,27.508"/>
	<path clip-path="url(#SVGID_2_)" fill="#40B4E5" d="M198.712,27.508c0.972,0,1.772-0.801,1.772-1.773
		c0-0.974-0.801-1.776-1.772-1.776c-0.973,0-1.774,0.802-1.774,1.776C196.938,26.707,197.739,27.508,198.712,27.508"/>
	<path clip-path="url(#SVGID_2_)" fill="#0D84C7" d="M214.407,41.272c-0.972,0-1.774,0.801-1.774,1.774
		c0,0.973,0.803,1.775,1.774,1.775s1.773-0.802,1.773-1.775C216.181,42.073,215.379,41.272,214.407,41.272"/>
	<path clip-path="url(#SVGID_2_)" fill="#0D84C7" d="M218.218,41.272c-0.972,0-1.773,0.801-1.773,1.774
		c0,0.973,0.802,1.775,1.773,1.775c0.973,0,1.773-0.802,1.773-1.775C219.991,42.073,219.19,41.272,218.218,41.272"/>
	<path clip-path="url(#SVGID_2_)" fill="#004A97" d="M248.067,23.221h-3.7v8.384v2.27c0,1.85-0.668,2.899-2.537,2.899h-0.04v-2.69
		c0-3.433-1.772-5.112-5.416-5.112h-0.878c-1.277,0-2.728,0.096-3.948,0.573v2.918c0.306-0.076,0.974-0.381,2.689-0.381h1.279
		c1.143,0,2.897,0.305,2.897,1.831v2.861c0-0.019-7.02,0-7.02,0h-0.535c-0.622,0-1.226-0.055-1.85-0.112l-0.022,2.962
		c0.695,0.057,1.407,0.088,2.14,0.088h0.268h0.191h8.24h1.964h0.308c3.833,0,5.97-2.003,5.97-5.856v-2.251V23.221z"/>
	<rect x="251.047" y="23.221" clip-path="url(#SVGID_2_)" fill="#40B4E5" width="3.7" height="16.491"/>
	<path clip-path="url(#SVGID_2_)" fill="#0D84C7" d="M214.387,39.711h-2.42c-0.265,3.366-2.374,5.112-5.951,5.112h-0.458v-3.146
		h0.19c1.87,0,2.537-1.049,2.537-2.901v-1.983v-0.401v-0.477v-0.762v-6.01h3.689v7.63h2.241l0.444,0.001h0.521
		c1.868,0,2.536-1.049,2.536-2.899v-2.27v-2.474h3.7v2.474v2.251c0,3.853-2.137,5.856-5.97,5.856L214.387,39.711z"/>
	
		<rect x="186.261" y="35.107" transform="matrix(0.707 -0.7072 0.7072 0.707 28.979 143.8408)" clip-path="url(#SVGID_2_)" fill="#0D84C7" width="3.674" height="3.674"/>
	<path clip-path="url(#SVGID_2_)" fill="#001689" d="M227.031,27.508c0.972,0,1.773-0.801,1.773-1.773
		c0-0.974-0.802-1.776-1.773-1.776s-1.774,0.802-1.774,1.776C225.257,26.707,226.06,27.508,227.031,27.508"/>
	<path clip-path="url(#SVGID_2_)" fill="#001689" d="M225.342,29.143v6.009v0.763v0.477v0.4v1.984c0,1.852-0.668,2.901-2.537,2.901
		h-0.191v3.146h0.458c3.61,0,5.727-1.775,5.96-5.198V29.143H225.342z"/>
</g>
</svg>
