<svg width="28" height="17" viewBox="0 0 28 17" fill="none" xmlns="http://www.w3.org/2000/svg">
<g clip-path="url(#clip0_1433_1855)">
<path d="M25.9454 10.3488H0V17.0004H25.9454V10.3488Z" fill="#0082CA"/>
<path d="M17.758 0.677518C17.9101 0.677518 18.0355 0.550789 18.0355 0.397139C18.0355 0.24349 17.9101 0.11676 17.758 0.11676C17.6058 0.11676 17.4805 0.24349 17.4805 0.397139C17.4805 0.550789 17.6058 0.677518 17.758 0.677518Z" fill="#00A0DF"/>
<path d="M17.1623 0.677518C17.3144 0.677518 17.4398 0.550789 17.4398 0.397139C17.4398 0.24349 17.3144 0.11676 17.1623 0.11676C17.0101 0.11676 16.8848 0.24349 16.8848 0.397139C16.8848 0.550789 17.0101 0.677518 17.1623 0.677518Z" fill="#00A0DF"/>
<path d="M21.5939 0.677518C21.7461 0.677518 21.8714 0.550789 21.8714 0.397139C21.8714 0.24349 21.7461 0.11676 21.5939 0.11676C21.4418 0.11676 21.3164 0.24349 21.3164 0.397139C21.3164 0.550789 21.4418 0.677518 21.5939 0.677518Z" fill="#00A0DF"/>
<path d="M2.74075 3.09619H1.43573V6.6264C1.43573 6.99789 1.36604 7.26295 1.22668 7.42074C1.08731 7.57853 0.858468 7.65722 0.540563 7.65722C0.505927 7.65722 0.472116 7.65432 0.438305 7.65266L0 8.72821C0.193382 8.76341 0.406968 8.78163 0.640759 8.78163C1.0535 8.78163 1.39491 8.72655 1.66581 8.61639C1.9363 8.50664 2.15112 8.35754 2.30986 8.16869C2.46902 7.98025 2.58035 7.75868 2.64468 7.50523C2.70859 7.25177 2.74075 6.98133 2.74075 6.69432V3.09661V3.09619Z" fill="#00A0DF"/>
<path d="M24.0295 4.09842C23.8843 4.09842 23.7408 4.10546 23.599 4.11955C23.4563 4.13363 23.3211 4.15061 23.1933 4.17049C23.1256 4.18084 23.0613 4.19202 22.999 4.20362V4.20486C22.9611 4.2119 22.9232 4.21894 22.8852 4.22681C22.7908 4.24669 22.7079 4.27071 22.6411 4.29846V5.33756C22.7451 5.31147 22.9817 5.20047 23.5874 5.20047C23.6332 5.20047 23.6806 5.20089 23.7305 5.20255C23.8085 5.20462 23.9021 5.20959 24.0105 5.22367C24.1193 5.23775 24.2018 5.25349 24.2575 5.27047L24.283 5.27751C24.3997 5.30981 24.4913 5.35951 24.5572 5.42619C24.6855 5.55581 24.7498 5.64196 24.7498 5.85607V5.96127C24.4805 5.94346 24.1544 5.92358 24.0138 5.92358C23.7738 5.92358 23.5425 5.9476 23.319 5.99523C23.0959 6.04285 22.898 6.12071 22.7253 6.22756C22.5525 6.33441 22.4144 6.47813 22.3113 6.65828C22.2082 6.83885 22.1562 7.05835 22.1562 7.31719C22.1562 7.57603 22.2008 7.81583 22.2898 8.00137C22.3793 8.18732 22.5076 8.33807 22.675 8.45362C22.842 8.56916 23.0415 8.65241 23.2728 8.70293C23.5042 8.75387 23.7623 8.77872 24.0468 8.77872C24.4983 8.77872 24.883 8.75222 25.2013 8.69838C25.5192 8.64495 25.7674 8.59857 25.946 8.55922V5.91447C25.946 5.63864 25.915 5.38767 25.854 5.16279C25.7926 4.93749 25.6878 4.74574 25.5402 4.58795C25.3926 4.43016 25.1959 4.30923 24.9506 4.22432C24.7049 4.14025 24.3985 4.0976 24.0303 4.0976M24.1309 7.8063C23.9021 7.8063 23.7223 7.7682 23.5912 7.69241C23.46 7.61621 23.3945 7.47995 23.3945 7.2824C23.3945 7.18094 23.4167 7.09645 23.4613 7.02894C23.5058 6.96144 23.5672 6.9076 23.6452 6.86867C23.6914 6.84548 23.8934 6.8082 24.1614 6.8082C24.3375 6.8082 24.542 6.82435 24.7494 6.87115V7.77276C24.6822 7.78435 24.5931 7.79263 24.4814 7.79802C24.3696 7.80382 24.2529 7.80672 24.1301 7.80672" fill="#00A0DF"/>
<path d="M10.5909 4.21855H7.09392V5.26635H8.96796C8.81746 5.44651 8.65294 5.6482 8.47481 5.8706C8.29586 6.09299 8.1165 6.32285 7.93507 6.55891C7.75365 6.7958 7.58088 7.03104 7.41636 7.26462C7.25185 7.49862 7.11124 7.71687 6.99414 7.91939V8.66279H10.6334V7.61499H8.50409C8.66613 7.37851 8.84632 7.13334 9.04506 6.87988C9.24339 6.62642 9.44049 6.38456 9.63634 6.15305C9.83179 5.92236 10.0149 5.71115 10.1852 5.5194C10.3554 5.32765 10.4911 5.17565 10.5917 5.063V4.21814L10.5909 4.21855Z" fill="#00A0DF"/>
<path d="M12.8035 4.10007C12.5364 4.10007 12.2754 4.1506 12.0214 4.25206C11.7674 4.35353 11.5431 4.50304 11.3476 4.69976C11.1526 4.89689 10.9951 5.14331 10.8751 5.43902C10.7551 5.73472 10.6953 6.07971 10.6953 6.47398C10.6953 6.80074 10.7411 7.10514 10.8334 7.38676C10.9254 7.66838 11.0676 7.9119 11.2598 8.11732C11.4523 8.32315 11.6948 8.48467 11.9876 8.60312C12.2803 8.72115 12.625 8.78037 13.0208 8.78037C13.1767 8.78037 13.333 8.77168 13.4893 8.75511C13.6451 8.73813 13.7915 8.71742 13.9284 8.69174C14.0649 8.66648 14.1894 8.63666 14.3007 8.60312C14.412 8.56916 14.6388 8.49502 14.8025 8.3948V7.32836C14.3671 7.50065 14.1519 7.56484 13.8612 7.63525C13.643 7.68785 13.4163 7.69861 13.1874 7.69861C12.8304 7.69861 12.5463 7.62283 12.3343 7.47042C12.122 7.31843 12.0024 7.11259 11.9744 6.85375H14.8021C14.8075 6.78624 14.8132 6.70838 14.8186 6.62141C14.8244 6.53403 14.8268 6.45368 14.8268 6.38079C14.8268 5.6316 14.6458 5.06421 14.283 4.67822C13.9205 4.29224 13.427 4.09924 12.8023 4.09924M11.9744 5.9919C11.9913 5.88505 12.0172 5.77945 12.0539 5.67508C12.0902 5.57072 12.1418 5.47919 12.2086 5.4005C12.2754 5.32181 12.3591 5.25845 12.4597 5.21041C12.5603 5.16236 12.6798 5.13876 12.8196 5.13876C12.9594 5.13876 13.0856 5.16402 13.1837 5.21455C13.281 5.26549 13.3618 5.33009 13.4262 5.40878C13.4905 5.48789 13.5379 5.57817 13.5684 5.67922C13.5989 5.78069 13.6171 5.88505 13.6228 5.9919H11.9748H11.9744Z" fill="#00A0DF"/>
<path d="M17.2059 4.10007C16.9383 4.10007 16.6773 4.1506 16.4237 4.25206C16.1701 4.35353 15.9454 4.50304 15.7504 4.69976C15.5549 4.89689 15.3974 5.14331 15.2774 5.43902C15.1574 5.73472 15.0977 6.07971 15.0977 6.47398C15.0977 6.80074 15.1434 7.10514 15.2358 7.38676C15.3277 7.66838 15.47 7.9119 15.6621 8.11732C15.8547 8.32315 16.0971 8.48467 16.3899 8.60312C16.6826 8.72115 17.0274 8.78037 17.4232 8.78037C17.579 8.78037 17.7353 8.77168 17.8916 8.75511C18.0479 8.73813 18.1942 8.71742 18.3307 8.69174C18.4672 8.66648 18.5917 8.63666 18.7031 8.60312C18.8144 8.56916 19.0412 8.49502 19.2049 8.3948V7.32836C18.7694 7.50065 18.5542 7.56484 18.2635 7.63525C18.0454 7.68785 17.8186 7.69861 17.5898 7.69861C17.2327 7.69861 16.9486 7.62283 16.7362 7.47042C16.5243 7.31843 16.4043 7.11259 16.3767 6.85375H19.2044C19.2098 6.78624 19.2156 6.70838 19.2209 6.62141C19.2263 6.53403 19.2292 6.45368 19.2292 6.38079C19.2292 5.6316 19.0482 5.06421 18.6853 4.67822C18.3229 4.29224 17.8293 4.09924 17.2047 4.09924M16.3763 5.9919C16.3932 5.88505 16.4192 5.77945 16.4559 5.67508C16.4922 5.57072 16.5437 5.47919 16.6105 5.4005C16.6777 5.32181 16.761 5.25845 16.8616 5.21041C16.9622 5.16236 17.0818 5.13876 17.2216 5.13876C17.3613 5.13876 17.4875 5.16402 17.5856 5.21455C17.683 5.26549 17.7638 5.33009 17.8281 5.40878C17.892 5.48789 17.9394 5.57817 17.9703 5.67922C18.0009 5.78069 18.019 5.88505 18.0248 5.9919H16.3767H16.3763Z" fill="#00A0DF"/>
<path d="M21.3131 4.12537C20.9395 4.12537 20.6006 4.16057 20.2967 4.23097C19.9924 4.30138 19.7289 4.37634 19.5059 4.45503V8.66279H20.7523V5.26593C20.808 5.24895 20.8905 5.23363 20.9993 5.21955C21.1078 5.20547 21.2014 5.19925 21.2793 5.19843C21.2908 5.19843 21.3024 5.19843 21.3139 5.19843C21.8062 5.19843 22.2577 5.30611 22.3666 5.33385V4.29475C22.2998 4.26659 22.219 4.24298 22.1241 4.22311C22.0289 4.20323 21.9345 4.18666 21.8396 4.17216C21.7448 4.15808 21.65 4.1469 21.5551 4.1382C21.4603 4.12951 21.3795 4.12578 21.3127 4.12578" fill="#00A0DF"/>
<path d="M4.81071 4.09842C4.66557 4.09842 4.52208 4.10546 4.38024 4.11955C4.23757 4.13363 4.10233 4.15061 3.97451 4.17049C3.90688 4.18084 3.84256 4.19202 3.7803 4.20362V4.20486C3.74237 4.2119 3.70443 4.21894 3.6665 4.22681C3.57166 4.24669 3.4892 4.27071 3.4224 4.29846V5.33756C3.52631 5.31147 3.76298 5.20047 4.36869 5.20047C4.41446 5.20047 4.46188 5.20089 4.51177 5.20255C4.5897 5.20462 4.6833 5.20959 4.79174 5.22367C4.9006 5.23775 4.98306 5.25349 5.03873 5.27047L5.06429 5.27751C5.18057 5.30981 5.27252 5.35951 5.33849 5.42619C5.46672 5.55581 5.53105 5.64196 5.53105 5.85607V5.96127C5.26221 5.94346 4.93606 5.92358 4.79504 5.92358C4.55548 5.92358 4.32375 5.9476 4.10068 5.99523C3.87761 6.04285 3.67969 6.12071 3.50651 6.22756C3.33375 6.33441 3.19562 6.47813 3.09254 6.65828C2.98945 6.83885 2.9375 7.05835 2.9375 7.31719C2.9375 7.57603 2.98203 7.81583 3.07109 8.00137C3.16057 8.18732 3.28839 8.33807 3.45621 8.45362C3.6232 8.56916 3.82277 8.65241 4.0545 8.70293C4.28581 8.75387 4.54393 8.77872 4.82844 8.77872C5.27994 8.77872 5.66464 8.75222 5.98296 8.69838C6.30045 8.64495 6.54867 8.59857 6.72762 8.55922V5.91447C6.72762 5.63864 6.6967 5.38767 6.63568 5.16279C6.57424 4.93749 6.46992 4.74574 6.32189 4.58795C6.17387 4.43016 5.9776 4.30923 5.73226 4.22432C5.48652 4.14025 5.18016 4.0976 4.81195 4.0976M4.91255 7.8063C4.68371 7.8063 4.50394 7.7682 4.37323 7.69241C4.24211 7.61621 4.17655 7.47995 4.17655 7.2824C4.17655 7.18094 4.19881 7.09645 4.24334 7.02894C4.28788 6.96144 4.34931 6.9076 4.42724 6.86867C4.47301 6.84548 4.67546 6.8082 4.94348 6.8082C5.11954 6.8082 5.32406 6.82435 5.53146 6.87115V7.77276C5.46466 7.78435 5.37519 7.79263 5.26386 7.79802C5.15212 7.80382 5.03502 7.80672 4.91255 7.80672" fill="#00A0DF"/>
<path d="M26.2715 7.78269L27.1357 8.65572L28 7.78269L27.1357 6.90967L26.2715 7.78269Z" fill="#00A0DF"/>
<path d="M22.8673 2.85266C22.7152 2.85266 22.5898 2.97939 22.5898 3.13304C22.5898 3.28669 22.7152 3.41342 22.8673 3.41342C23.0195 3.41342 23.1448 3.28669 23.1448 3.13304C23.1448 2.97939 23.0195 2.85266 22.8673 2.85266Z" fill="#00A0DF"/>
<path d="M19.6173 2.85266C19.4652 2.85266 19.3398 2.97939 19.3398 3.13304C19.3398 3.28669 19.4652 3.41342 19.6173 3.41342C19.7695 3.41342 19.8948 3.28669 19.8948 3.13304C19.8948 2.97939 19.7695 2.85266 19.6173 2.85266Z" fill="#00A0DF"/>
<path d="M20.215 2.85266C20.0628 2.85266 19.9375 2.97939 19.9375 3.13304C19.9375 3.28669 20.0628 3.41342 20.215 3.41342C20.3671 3.41342 20.4925 3.28669 20.4925 3.13304C20.4925 2.97939 20.3671 2.85266 20.215 2.85266Z" fill="#00A0DF"/>
<path d="M24.8841 0H24.3052V1.68352C24.3052 1.97591 24.2009 2.14157 23.9081 2.14157H23.9019V1.71623C23.9019 1.1737 23.6244 0.908644 23.0546 0.908644H22.9173C22.7173 0.908644 22.4905 0.923967 22.2992 0.999342V1.46029C22.3471 1.44828 22.4518 1.40024 22.7202 1.40024H22.9202C23.0991 1.40024 23.3738 1.44828 23.3738 1.68973V2.14198C23.3738 2.13867 22.2753 2.14198 22.2753 2.14198H22.1916C22.0943 2.14198 21.9995 2.13328 21.9021 2.12417L21.8984 2.59216C22.0073 2.60127 22.1186 2.60624 22.2332 2.60624H23.9498C24.5497 2.60624 24.8837 2.28983 24.8837 1.68062V0H24.8841Z" fill="#00A0DF"/>
<path d="M25.9305 0H25.3516V2.60583H25.9305V0Z" fill="#00A0DF"/>
<path d="M19.6141 2.60582H19.2356C19.194 3.138 18.8641 3.41341 18.3042 3.41341H18.2324V2.91643H18.2621C18.5545 2.91643 18.6592 2.75077 18.6592 2.45797V0.93597H19.2364V2.14156H19.6566H19.7378C20.0302 2.14156 20.1349 1.9759 20.1349 1.68351V0.933899H20.7138V1.68061C20.7138 2.28941 20.3794 2.60623 19.7799 2.60623H19.6141V2.60582Z" fill="#00A0DF"/>
<path d="M15.9084 2.16848L15.5023 2.57931L15.0957 2.16848L15.5023 1.75806L15.9084 2.16848Z" fill="#00A0DF"/>
<path d="M17.6851 0.972865C17.5272 0.962511 17.3359 0.9505 17.2534 0.9505C17.1128 0.9505 16.9768 0.964582 16.8461 0.992744C16.7153 1.02091 16.5991 1.06646 16.4976 1.129C16.3962 1.19195 16.3154 1.27602 16.2548 1.38163C16.1942 1.48724 16.1641 1.61604 16.1641 1.76803C16.1641 1.92002 16.19 2.06042 16.2424 2.16934C16.2948 2.27868 16.3702 2.36689 16.4684 2.4344C16.5665 2.50232 16.6832 2.55077 16.8193 2.58059C16.9549 2.61041 17.1062 2.62491 17.2732 2.62491C17.5379 2.62491 17.7639 2.60917 17.9503 2.57769C18.1366 2.54622 18.1416 2.54332 18.2356 2.499V1.03374L17.6856 0.972865H17.6851ZM17.2328 2.13C17.0741 2.13 16.9495 2.10391 16.8588 2.0509C16.7681 1.99788 16.7347 1.91588 16.7347 1.7788C16.7347 1.70839 16.75 1.65 16.7813 1.6032C16.8122 1.5564 16.8547 1.51913 16.9087 1.49179C16.9409 1.47564 17.0807 1.44996 17.2666 1.44996C17.3887 1.44996 17.5095 1.45411 17.6534 1.48641L17.6563 2.09935C17.6101 2.10722 17.5536 2.12047 17.4761 2.1242C17.3986 2.12834 17.366 2.12793 17.2811 2.12793L17.2324 2.13041L17.2328 2.13Z" fill="#00A0DF"/>
<path d="M21.3291 0.935974V2.45839C21.3291 2.75119 21.2248 2.91685 20.932 2.91685H20.9023V3.41424H20.9741C21.539 3.41424 21.8701 3.13386 21.9068 2.59257V0.935974H21.3295H21.3291Z" fill="#00A0DF"/>
<path d="M1.69975 14.4393C1.78716 14.4758 1.88282 14.5068 1.9859 14.5325C2.08857 14.5586 2.19536 14.5793 2.30546 14.595C2.41555 14.6104 2.52234 14.6182 2.62542 14.6182C2.68768 14.6182 2.75242 14.6166 2.82087 14.6133C2.88931 14.6099 2.95199 14.6021 3.0093 14.5901C3.06661 14.578 3.11733 14.5607 3.16104 14.5379C3.20474 14.5155 3.23278 14.4853 3.24598 14.4472C3.26701 14.3851 3.24474 14.3349 3.17836 14.2968C3.11197 14.2587 2.99116 14.219 2.81592 14.1776L2.45678 14.0947C2.12238 14.0152 1.88859 13.8612 1.75582 13.6334C1.62305 13.4052 1.61687 13.1132 1.73727 12.757C1.79458 12.5876 1.88199 12.4261 1.99951 12.2721C2.11702 12.1184 2.26546 11.9842 2.44524 11.8703C2.62501 11.7565 2.83447 11.6658 3.07445 11.5982C3.31401 11.5307 3.58697 11.4972 3.89333 11.4972C4.02775 11.4972 4.16629 11.5067 4.30979 11.5258C4.45286 11.5448 4.59141 11.5709 4.725 11.6036C4.85859 11.6368 4.98106 11.6753 5.09321 11.7204C5.20536 11.7656 5.29649 11.8157 5.36741 11.8708L4.49451 13.032C4.43719 12.9873 4.3671 12.9455 4.28381 12.9078C4.20011 12.8697 4.11187 12.8378 4.01909 12.8121C3.92632 12.786 3.83313 12.7661 3.73995 12.7525C3.64635 12.7388 3.55852 12.7318 3.47606 12.7318C3.42781 12.7318 3.37627 12.7334 3.32185 12.7372C3.26742 12.7405 3.21547 12.7475 3.16516 12.7579C3.11527 12.7682 3.07115 12.784 3.03322 12.8047C2.99528 12.8254 2.96972 12.8548 2.95694 12.8929C2.93962 12.9446 2.95281 12.9865 2.99734 13.0171C3.04187 13.0482 3.14083 13.0813 3.29463 13.1157L3.63645 13.1882C3.80015 13.223 3.95065 13.2718 4.08713 13.336C4.22361 13.4002 4.33494 13.483 4.42111 13.5849C4.50688 13.6868 4.56007 13.8123 4.58027 13.961C4.60048 14.1096 4.57615 14.2857 4.50729 14.4898C4.43266 14.711 4.31886 14.9065 4.16712 15.0759C4.01497 15.2452 3.83767 15.3877 3.63522 15.5037C3.43235 15.6196 3.21299 15.7066 2.97631 15.7654C2.73964 15.8242 2.49925 15.8536 2.25474 15.8536C2.0828 15.8536 1.91374 15.8441 1.7484 15.8251C1.58264 15.806 1.42802 15.7799 1.28412 15.7472C1.14063 15.7145 1.01157 15.6755 0.897766 15.6304C0.783964 15.5857 0.691602 15.5351 0.621094 15.4801L1.49399 14.3184C1.54389 14.3635 1.61274 14.4041 1.70057 14.4401L1.69975 14.4393Z" fill="#FBCE40"/>
<path d="M8.75259 15.7795H7.44633L7.46859 15.0121H6.10585L5.60858 15.7795H4.30273L7.07812 11.5742H8.82309L8.75259 15.7795ZM6.76475 13.9957H7.49787L7.53127 12.8138L6.76475 13.9957Z" fill="#FBCE40"/>
<path d="M9.92274 11.5742H11.2805L10.9894 14.5404L12.7056 11.5742H14.0633L11.4945 15.7795H9.64648L9.92357 11.5742H9.92274Z" fill="#FBCE40"/>
<path d="M14.4753 11.5742H17.4333L17.0317 12.7616H15.3383L15.2364 13.0623H16.7748L16.3732 14.2496H14.8348L14.719 14.5921H16.4124L16.0108 15.7795H13.0527L14.4757 11.5742H14.4753Z" fill="#FBCE40"/>
<path d="M18.6695 14.3743H18.4217L17.9463 15.7795H16.6816L18.1046 11.5742H19.9477C20.2334 11.5742 20.4594 11.6156 20.626 11.6989C20.7921 11.7817 20.913 11.8906 20.988 12.0256C21.0626 12.1607 21.0973 12.3126 21.0919 12.482C21.0865 12.6514 21.0544 12.8208 20.9975 12.9902C20.9097 13.2495 20.7777 13.4847 20.6016 13.6951C20.4252 13.9059 20.1996 14.072 19.9246 14.1929L20.3481 15.7795H19.0162L18.6707 14.3743H18.6695ZM18.9692 12.7562L18.7866 13.2954H19.1016C19.1738 13.2954 19.2422 13.2938 19.3074 13.2905C19.3721 13.2871 19.4315 13.2764 19.4859 13.2594C19.5399 13.242 19.5869 13.2151 19.6265 13.179C19.6661 13.143 19.6974 13.0921 19.7197 13.0262C19.7419 12.9608 19.7452 12.9094 19.73 12.873C19.7147 12.8365 19.6859 12.81 19.6434 12.7926C19.6009 12.7753 19.5486 12.7649 19.4863 12.7616C19.4236 12.7583 19.3564 12.7562 19.2843 12.7562H18.9692Z" fill="#FBCE40"/>
<path d="M21.6838 14.4393C21.7712 14.4758 21.8669 14.5068 21.97 14.5325C22.0726 14.5586 22.1794 14.5793 22.2895 14.595C22.3996 14.6104 22.5064 14.6182 22.6095 14.6182C22.6718 14.6182 22.7365 14.6166 22.8049 14.6133C22.8734 14.6099 22.9361 14.6021 22.9934 14.5901C23.0507 14.578 23.1014 14.5607 23.1451 14.5379C23.1892 14.5155 23.2173 14.4853 23.23 14.4472C23.2511 14.3851 23.2284 14.3349 23.162 14.2968C23.0956 14.2587 22.9748 14.219 22.7996 14.1776L22.4404 14.0947C22.106 14.0152 21.8723 13.8612 21.7395 13.6334C21.6067 13.4052 21.6005 13.1132 21.7213 12.757C21.7787 12.5876 21.8661 12.4261 21.9832 12.2721C22.1007 12.1184 22.2491 11.9842 22.4289 11.8703C22.6087 11.7565 22.8181 11.6658 23.0577 11.5982C23.2973 11.5307 23.5702 11.4972 23.8766 11.4972C24.011 11.4972 24.1495 11.5067 24.293 11.5258C24.4361 11.5448 24.5747 11.5709 24.7082 11.6036C24.8414 11.6368 24.9643 11.6753 25.0765 11.7204C25.1886 11.7656 25.2797 11.8157 25.3507 11.8708L24.4773 13.032C24.4204 12.9873 24.3499 12.9455 24.2666 12.9078C24.1834 12.8697 24.0947 12.8378 24.0023 12.8121C23.9096 12.786 23.8164 12.7661 23.7232 12.7525C23.6296 12.7388 23.5418 12.7318 23.4593 12.7318C23.4111 12.7318 23.3595 12.7334 23.3051 12.7372C23.2507 12.7405 23.1987 12.7475 23.1484 12.7579C23.0985 12.7682 23.0544 12.784 23.0165 12.8047C22.9785 12.8254 22.953 12.8548 22.9402 12.8929C22.9225 12.9446 22.9361 12.9865 22.9806 13.0171C23.0251 13.0482 23.1241 13.0813 23.2775 13.1157L23.6193 13.1882C23.783 13.223 23.9335 13.2718 24.07 13.336C24.2064 13.4002 24.3178 13.483 24.4039 13.5849C24.4897 13.6868 24.5429 13.8123 24.5635 13.961C24.5837 14.1096 24.5594 14.2857 24.4901 14.4898C24.4151 14.711 24.3017 14.9065 24.15 15.0759C23.9978 15.2452 23.8205 15.3877 23.618 15.5037C23.4156 15.6196 23.1958 15.7066 22.9591 15.7654C22.7225 15.8242 22.4821 15.8536 22.2376 15.8536C22.0656 15.8536 21.8966 15.8441 21.7312 15.8251C21.5655 15.806 21.4109 15.7799 21.267 15.7472C21.1235 15.7145 20.9944 15.6755 20.8806 15.6304C20.7668 15.5857 20.6744 15.5351 20.6035 15.4801L21.4768 14.3184C21.5267 14.3635 21.5956 14.4041 21.6834 14.4401L21.6838 14.4393Z" fill="#FBCE40"/>
</g>
<defs>
<clipPath id="clip0_1433_1855">
<rect width="28" height="17" fill="white"/>
</clipPath>
</defs>
</svg>
